<svg width="777" height="811" viewBox="0 0 777 811" fill="none" xmlns="http://www.w3.org/2000/svg">
<path d="M677.011 155.87C677.011 155.87 610.664 131.083 567.592 136.413C510.797 143.441 478.846 173.381 440.578 209.501C402.31 245.621 378.849 295.767 319.839 321.029C266.365 343.921 221.613 345.518 171.58 335.358" stroke="#CE142A" stroke-width="39"/>
<path d="M699.827 174.938C699.827 174.938 618.874 154.396 568.946 166.689C503.113 182.898 469.266 223.105 428.758 271.574C388.251 320.044 366.852 383.26 300.656 421.587C240.668 456.32 188.31 464.376 128.309 459.093" stroke="#CE142A" stroke-width="63"/>
<path d="M348.852 332.381C344.495 334.025 338.307 334.569 334.902 337.973C333.309 339.565 331.721 340.911 330.227 342.647C323.93 349.959 318.103 357.522 309.96 362.993C302.466 368.027 294.848 371.213 286.309 373.909C278.435 376.395 271.286 379.057 264.569 383.912C257.557 388.98 252.028 395.58 244.341 399.865C241.88 401.236 239.568 403.033 237.029 404.22C234.422 405.44 231.695 406.13 229.07 407.271C227.447 407.977 211.535 413.95 210.904 412.405C209.645 409.32 212.418 403.74 213.891 401.284C216.801 396.435 220.617 392.135 224.553 388.106C232.87 379.593 240.266 370.945 252.291 367.742C260.305 365.608 268.852 364.691 277.12 364.26C284.655 363.866 291.925 364.19 299.269 362.124C302.074 361.335 306.058 360.697 308.517 359.031C309.809 358.156 311.059 357.487 309.01 356.968C301.63 355.098 292.143 356.671 284.754 357.958C279.324 358.903 274.009 360.112 268.76 361.739C263.791 363.279 258.996 365.743 253.79 366.349C247.809 367.045 242.074 365.987 236.105 365.798C232.616 365.688 228.691 366.141 225.264 365.485C223.528 365.153 223.154 366.653 222.18 368.087C220.66 370.329 219.171 372.548 217.509 374.648" stroke="#CE142A" stroke-width="37" stroke-linecap="round"/>
<path d="M205.275 360.885C205.012 362.31 204.643 363.707 204.352 365.103C204.213 365.769 204.319 366.396 204.121 367.062C203.857 367.948 203.716 368.821 203.399 369.696C202.632 371.811 201.521 373.717 200.348 375.632C199.857 376.435 199.469 377.442 198.883 378.17C198.424 378.739 198.205 379.869 197.644 380.283" stroke="#CE142A" stroke-width="37" stroke-linecap="round"/>
<path d="M200.577 369.802C208.762 384.954 205.03 395.661 201.005 406.764C198.234 414.409 195.462 422.055 192.69 429.7" stroke="#CE142A" stroke-width="37" stroke-linecap="round"/>
<path d="M272.85 364.092C295.914 384.637 292.345 395.403 288.32 406.506C285.549 414.152 282.777 421.798 280.005 429.443" stroke="#CE142A" stroke-width="37" stroke-linecap="round"/>
<path d="M677.011 155.87C677.011 155.87 610.664 131.083 567.592 136.413C510.797 143.441 478.846 173.381 440.578 209.501C402.31 245.621 378.849 295.767 319.839 321.029C266.365 343.921 221.613 345.518 171.58 335.358" stroke="#CE142A"/>
<path d="M705.235 233.156C705.235 233.156 619.366 208.829 565.816 219.941C495.206 234.592 458.148 275.47 413.79 324.759C369.432 374.048 345.108 439.434 273.587 477.212C208.774 511.447 152.732 518.042 88.8518 510.412" stroke="#DD233B" stroke-width="39"/>
<path d="M715.699 228.807C715.699 228.807 611.006 218.053 551.019 242.54C471.921 274.829 437.102 331.166 395.497 399.025C353.892 466.885 338.815 549.622 263.323 609.552C194.911 663.861 131.116 683.513 55.3441 687.936" stroke="#DD233B" stroke-width="27"/>
<path d="M318.912 493.8C313.782 496.65 306.167 498.464 302.547 503.332C300.854 505.609 299.121 507.579 297.576 510.017C291.068 520.288 285.192 530.786 276.043 539.101C267.625 546.753 258.713 552.121 248.562 557.05C239.202 561.594 230.778 566.225 223.295 573.511C215.483 581.115 209.801 590.358 201.004 597.11C198.188 599.272 195.635 601.936 192.688 603.882C189.662 605.881 186.389 607.241 183.326 609.146C181.432 610.324 162.69 620.69 161.621 618.88C159.484 615.265 161.917 607.799 163.303 604.468C166.041 597.889 170.01 591.827 174.178 586.082C182.984 573.943 190.617 561.805 205.021 555.605C214.619 551.473 225.106 548.762 235.335 546.707C244.657 544.834 253.779 543.903 262.556 539.979C265.908 538.481 270.758 536.955 273.518 534.426C274.968 533.099 276.404 532.035 273.754 531.764C264.21 530.787 252.671 534.489 243.697 537.449C237.1 539.624 230.696 542.107 224.451 545.098C218.539 547.93 213.013 551.882 206.634 553.593C199.305 555.558 191.962 555.291 184.485 556.151C180.115 556.654 175.305 557.94 170.912 557.751C168.688 557.655 168.496 559.593 167.546 561.56C166.061 564.634 164.613 567.674 162.926 570.597" stroke="#DD233B" stroke-width="37" stroke-linecap="round"/>
<path d="M320.234 463.835C315.103 466.685 307.488 468.498 303.868 473.366C302.175 475.644 300.443 477.613 298.897 480.052C292.389 490.323 286.513 500.821 277.365 509.136C268.947 516.787 260.034 522.156 249.883 527.085C240.523 531.629 232.099 536.26 224.616 543.545C216.804 551.15 211.122 560.393 202.325 567.145C199.509 569.306 196.956 571.97 194.01 573.917C190.984 575.916 187.71 577.276 184.647 579.181C182.754 580.358 164.012 590.725 162.942 588.914C160.806 585.3 163.239 577.834 164.625 574.502C167.363 567.923 171.331 561.862 175.499 556.116C184.306 543.978 191.938 531.839 206.343 525.639C215.941 521.508 226.428 518.796 236.656 516.741C245.978 514.868 255.1 513.938 263.877 510.014C267.229 508.515 272.079 506.989 274.839 504.461C276.289 503.133 277.725 502.069 275.076 501.798C265.531 500.822 253.993 504.524 245.018 507.484C238.421 509.659 232.017 512.141 225.772 515.132C219.86 517.964 214.335 521.917 207.955 523.628C200.627 525.593 193.283 525.326 185.807 526.186C181.436 526.688 176.626 527.974 172.233 527.786C170.009 527.69 169.817 529.628 168.867 531.595C167.383 534.669 165.934 537.709 164.247 540.632" stroke="#DD233B" stroke-width="37" stroke-linecap="round"/>
<path d="M145.148 555.683C145.082 557.508 144.879 559.318 144.771 561.111C144.72 561.967 144.968 562.73 144.843 563.597C144.677 564.749 144.661 565.863 144.426 567.013C143.858 569.79 142.823 572.37 141.713 574.973C141.247 576.064 140.948 577.391 140.351 578.405C139.884 579.199 139.819 580.649 139.195 581.267" stroke="#DD233B" stroke-width="37" stroke-linecap="round"/>
<path d="M140.927 567.663C153.912 585.05 151.225 599.082 148.245 613.663C146.192 623.703 144.14 633.744 142.088 643.784" stroke="#DD233B" stroke-width="37" stroke-linecap="round"/>
<path d="M309.386 505.957C302.592 557.384 273.937 580.519 243.833 604.295C223.103 620.666 202.373 637.038 181.643 653.41" stroke="#DD233B" stroke-width="37" stroke-linecap="round"/>
<path d="M355.205 423.122C344.68 484.695 308.905 513.532 271.343 543.197C245.478 563.624 219.613 584.052 193.749 604.479" stroke="#DD233B" stroke-width="37" stroke-linecap="round"/>
<path d="M695.63 213.526C695.63 213.526 608.368 194.8 555.648 209.35C486.133 228.534 451.795 271.722 410.716 323.775C369.636 375.828 349.589 442.649 280.66 484.971C218.195 523.324 162.696 533.527 98.4566 530.042" stroke="#DD233B"/>
</svg>
