<svg width="48" height="38" viewBox="0 0 48 38" fill="none" xmlns="http://www.w3.org/2000/svg">
<rect width="48" height="38" fill="#1E1E1E"/>
<path d="M13.3125 17.5781C14.5625 17.6719 15.6484 17.8984 16.5703 18.2578C17.4922 18.6172 18.2656 19.1094 18.8906 19.7344C19.5156 20.3594 19.9844 21.2031 20.2969 22.2656C20.6094 23.3281 20.7656 24.6094 20.7656 26.1094V27.75C20.7656 28.6563 20.75 29.4375 20.7188 30.0938C20.6875 30.75 20.6406 31.2969 20.5781 31.7344C20.5156 32.1719 20.4062 32.6484 20.25 33.1641C20.0938 33.6797 19.8594 34.2188 19.5469 34.7812C18.9844 35.8437 18 36.6406 16.5938 37.1719C15.1875 37.7031 13.3594 37.9688 11.1094 37.9688C8.85938 37.9688 6.98438 37.7891 5.48438 37.4297C3.98438 37.0703 2.85938 36.5156 2.10938 35.7656C1.42187 35.0469 0.898437 33.9922 0.539062 32.6016C0.179688 31.2109 0 29.4844 0 27.4219C0 26.5156 0.015625 25.7266 0.046875 25.0547C0.078125 24.3828 0.140625 23.8281 0.234375 23.3906C0.359375 21.7656 0.578125 20.2031 0.890625 18.7031C1.17188 17.2344 1.55469 15.8125 2.03906 14.4375C2.52344 13.0625 3.09375 11.75 3.75 10.5C4.40625 9.25 5.15625 8.04687 6 6.89062C7.65625 4.57813 9.53906 2.85156 11.6484 1.71094C13.7578 0.570312 16.0937 0 18.6562 0C18.9375 0 19.1875 0.101562 19.4062 0.304688C19.625 0.507813 19.8281 0.796875 20.0156 1.17188C20.2344 1.54688 20.3984 1.98437 20.5078 2.48438C20.6172 2.98438 20.6719 3.54688 20.6719 4.17188C20.6719 4.73438 20.625 5.25781 20.5312 5.74219C20.4375 6.22656 20.2969 6.65625 20.1094 7.03125C19.9531 7.375 19.7812 7.65625 19.5938 7.875C19.4062 8.09375 19.2031 8.25 18.9844 8.34375C18.7969 8.375 18.6328 8.40625 18.4922 8.4375C18.3516 8.46875 18.2188 8.5 18.0938 8.53125C18 8.53125 17.8516 8.57812 17.6484 8.67188C17.4453 8.76562 17.1875 8.90625 16.875 9.09375C16.625 9.25 16.3828 9.4375 16.1484 9.65625C15.9141 9.875 15.6719 10.125 15.4219 10.4062C14.7969 11.1562 14.3125 12.125 13.9688 13.3125C13.625 14.5 13.4062 15.9219 13.3125 17.5781ZM40.4531 17.5781C41.6719 17.6719 42.7422 17.9141 43.6641 18.3047C44.5859 18.6953 45.3594 19.2188 45.9844 19.875C46.6719 20.5 47.1797 21.4688 47.5078 22.7812C47.8359 24.0938 48 25.75 48 27.75C48 29.9375 47.8047 31.7109 47.4141 33.0703C47.0234 34.4297 46.4375 35.4062 45.6562 36C44.75 36.6562 43.5781 37.1484 42.1406 37.4766C40.7031 37.8047 39.0313 37.9688 37.125 37.9688C35.2187 37.9688 33.6094 37.7891 32.2969 37.4297C30.9844 37.0703 29.9531 36.5156 29.2031 35.7656C28.5156 35.0469 27.9922 33.9922 27.6328 32.6016C27.2734 31.2109 27.0938 29.4844 27.0938 27.4219C27.0938 26.5156 27.1172 25.7266 27.1641 25.0547C27.2109 24.3828 27.2656 23.8281 27.3281 23.3906C27.4531 21.7656 27.6719 20.2031 27.9844 18.7031C28.2969 17.2344 28.6953 15.8125 29.1797 14.4375C29.6641 13.0625 30.2344 11.75 30.8906 10.5C31.5469 9.25 32.2812 8.04687 33.0938 6.89062C34.8125 4.57813 36.7344 2.85156 38.8594 1.71094C40.9844 0.570312 43.3281 0 45.8906 0C46.1406 0 46.375 0.101562 46.5938 0.304688C46.8125 0.507813 47.0156 0.796875 47.2031 1.17188C47.4531 1.54688 47.6328 1.98437 47.7422 2.48438C47.8516 2.98438 47.9062 3.54688 47.9062 4.17188C47.9062 4.73438 47.8594 5.25781 47.7656 5.74219C47.6719 6.22656 47.5312 6.65625 47.3438 7.03125C47.1875 7.375 47.0156 7.65625 46.8281 7.875C46.6406 8.09375 46.4375 8.25 46.2188 8.34375C46.0312 8.375 45.8672 8.40625 45.7266 8.4375C45.5859 8.46875 45.4531 8.5 45.3281 8.53125C45.2344 8.53125 45.0859 8.57812 44.8828 8.67188C44.6797 8.76562 44.4219 8.90625 44.1094 9.09375C43.8281 9.25 43.5547 9.4375 43.2891 9.65625C43.0234 9.875 42.7812 10.125 42.5625 10.4062C41.9375 11.1562 41.4453 12.125 41.0859 13.3125C40.7266 14.5 40.5156 15.9219 40.4531 17.5781Z" fill="#F06D4F"/>
</svg>
