<svg width="359" height="298" viewBox="0 0 359 298" fill="none" xmlns="http://www.w3.org/2000/svg">
<path d="M149.837 28.6412C150.552 25.0031 153.107 22.4053 155.544 22.839C157.982 23.2726 159.378 26.5733 158.664 30.2114L157.65 35.3743L159.827 30.8274C161.376 27.5934 164.263 26.3674 166.277 28.0892C168.29 29.8109 168.666 33.8284 167.118 37.0625L159.64 52.678C158.091 55.912 155.203 57.138 153.19 55.4162C152.545 54.865 152.069 54.0784 151.769 53.1575C151.043 53.5544 150.269 53.7155 149.507 53.5798C148.882 53.4687 148.325 53.169 147.855 52.7235C147.059 54.4907 145.781 55.8561 144.312 56.296C141.774 57.0558 139.629 54.7663 139.522 51.1821L139.002 33.8762C138.894 30.292 140.864 26.7705 143.402 26.0106C145.94 25.2508 148.084 27.5403 148.192 31.1245L148.345 36.2358L149.837 28.6412Z" fill="#FAFAFA"/>
<path d="M38.3371 141.332C28.1146 189.697 59.035 237.191 107.4 247.413V247.413C155.764 257.636 203.259 226.716 213.481 178.351L218.37 155.219L43.2264 118.2L38.3371 141.332Z" fill="#A97337"/>
<g style="mix-blend-mode:multiply">
<path fill-rule="evenodd" clip-rule="evenodd" d="M103.7 212.327C103.515 213.204 103.1 214.023 102.479 214.738C101.857 215.453 101.042 216.049 100.079 216.494C99.1169 216.938 98.0257 217.221 96.8682 217.327C95.7107 217.433 94.5097 217.359 93.3337 217.111C92.1576 216.862 91.0296 216.443 90.014 215.878C88.9983 215.313 88.1151 214.612 87.4145 213.817C86.714 213.021 86.2099 212.145 85.931 211.24C85.6522 210.335 85.6041 209.418 85.7894 208.541L94.7449 210.434L103.7 212.327ZM121.611 216.112C121.426 216.989 121.011 217.809 120.39 218.523C119.768 219.238 118.953 219.835 117.991 220.279C117.028 220.724 115.937 221.007 114.779 221.113C113.622 221.218 112.421 221.145 111.245 220.896C110.069 220.648 108.941 220.229 107.925 219.664C106.909 219.099 106.026 218.398 105.326 217.602C104.625 216.807 104.121 215.931 103.842 215.026C103.563 214.121 103.515 213.204 103.7 212.327L112.656 214.22L121.611 216.112ZM138.301 222.309C138.922 221.594 139.337 220.775 139.523 219.898L130.567 218.005L121.612 216.112C121.426 216.989 121.474 217.906 121.753 218.812C122.032 219.717 122.536 220.592 123.237 221.388C123.937 222.184 124.82 222.884 125.836 223.45C126.852 224.015 127.98 224.434 129.156 224.682C130.332 224.931 131.533 225.004 132.69 224.898C133.848 224.792 134.939 224.509 135.902 224.065C136.864 223.621 137.679 223.024 138.301 222.309Z" fill="#4B2807" fill-opacity="0.5"/>
</g>
<g style="mix-blend-mode:multiply">
<path fill-rule="evenodd" clip-rule="evenodd" d="M106.805 197.637C106.626 198.485 106.217 199.275 105.601 199.963C104.986 200.651 104.176 201.223 103.218 201.647C102.259 202.071 101.172 202.337 100.016 202.432C98.8613 202.527 97.6615 202.447 96.4855 202.199C95.3094 201.95 94.1802 201.537 93.1622 200.983C92.1442 200.429 91.2574 199.745 90.5525 198.97C89.8476 198.195 89.3383 197.344 89.0538 196.466C88.7693 195.588 88.715 194.699 88.8942 193.852L97.8497 195.745L106.805 197.637ZM124.716 201.423C124.537 202.271 124.128 203.061 123.512 203.749C122.897 204.437 122.087 205.009 121.129 205.433C120.17 205.856 119.083 206.123 117.927 206.218C116.772 206.312 115.573 206.233 114.397 205.985C113.22 205.736 112.091 205.323 111.073 204.769C110.055 204.215 109.169 203.531 108.464 202.756C107.759 201.981 107.249 201.13 106.965 200.252C106.68 199.373 106.626 198.485 106.805 197.637L115.761 199.53L124.716 201.423ZM141.424 207.535C142.039 206.847 142.448 206.056 142.627 205.209L133.672 203.316L124.716 201.423C124.537 202.271 124.591 203.159 124.876 204.037C125.16 204.915 125.67 205.766 126.375 206.541C127.08 207.317 127.966 208.001 128.984 208.555C130.002 209.109 131.132 209.522 132.308 209.77C133.484 210.019 134.683 210.098 135.839 210.003C136.994 209.909 138.081 209.642 139.04 209.218C139.998 208.795 140.808 208.223 141.424 207.535Z" fill="#4B2807" fill-opacity="0.5"/>
</g>
<g style="mix-blend-mode:multiply">
<path fill-rule="evenodd" clip-rule="evenodd" d="M99.4015 226.763C99.1729 227.845 98.6609 228.855 97.8947 229.737C97.1284 230.619 96.123 231.355 94.9357 231.902C93.7484 232.45 92.4026 232.8 90.9751 232.93C89.5476 233.061 88.0663 232.97 86.6158 232.664C85.1654 232.357 83.7741 231.841 82.5215 231.143C81.269 230.446 80.1796 229.582 79.3156 228.601C78.4515 227.62 77.8298 226.54 77.4859 225.423C77.142 224.307 77.0827 223.176 77.3113 222.094L88.3564 224.429L99.4015 226.763ZM117.026 236.572C114.628 237.678 111.635 237.952 108.706 237.333C105.777 236.714 103.151 235.252 101.406 233.27C99.6609 231.288 98.9399 228.947 99.4016 226.763L110.447 229.098L121.492 231.432C121.03 233.616 119.424 235.465 117.026 236.572ZM142.075 239.075C142.841 238.193 143.353 237.183 143.582 236.101L132.537 233.767L121.492 231.432C121.263 232.514 121.323 233.645 121.667 234.761C122.01 235.878 122.632 236.958 123.496 237.939C124.36 238.921 125.45 239.784 126.702 240.482C127.955 241.179 129.346 241.695 130.796 242.002C132.247 242.308 133.728 242.399 135.156 242.268C136.583 242.138 137.929 241.788 139.116 241.241C140.304 240.693 141.309 239.957 142.075 239.075Z" fill="#4B2807" fill-opacity="0.5"/>
</g>
<path fill-rule="evenodd" clip-rule="evenodd" d="M69.9139 123.84L43.2264 118.2L38.3371 141.332C31.0331 175.889 44.7333 210.002 70.7934 230.392C81.866 221.07 90.3212 207.334 93.7688 191.023C99.6081 163.396 89.321 136.714 69.9139 123.84ZM146.504 246.968C179.154 239.227 206.082 213.359 213.481 178.351L218.37 155.219L190.105 149.244C167.149 153.164 146.945 173.401 141.105 201.028C137.601 217.609 139.905 233.849 146.504 246.968Z" fill="#62401A"/>
<path d="M149.2 45.562C98.536 34.8534 49.2877 64.0355 37.885 110.99C37.781 111.359 37.6886 111.734 37.6082 112.114L28.818 153.702C26.7317 163.573 33.562 173.376 44.0739 175.598C54.5859 177.82 64.7988 171.619 66.8851 161.748L70.1954 146.087L66.7053 162.599C64.7183 172 71.2233 181.336 81.2347 183.452C91.2461 185.569 100.973 179.663 102.96 170.262L106.45 153.75L103.14 169.411C101.053 179.282 107.884 189.085 118.395 191.307C128.907 193.529 139.12 187.328 141.207 177.457L141.027 178.308C139.04 187.709 145.545 197.045 155.556 199.161C165.568 201.277 175.294 195.372 177.281 185.971L177.453 185.156C175.391 195.015 182.218 204.797 192.717 207.016C203.229 209.237 213.442 203.037 215.528 193.166L224.318 151.577C224.399 151.197 224.466 150.817 224.52 150.438C233.093 102.885 199.865 56.2706 149.2 45.562Z" fill="#DBDBDB"/>
<path fill-rule="evenodd" clip-rule="evenodd" d="M36.785 116.009C39.0068 105.497 49.3296 98.7765 59.8415 100.998C70.3534 103.22 77.0739 113.543 74.8521 124.055L68.7997 152.69C66.5779 163.202 56.2551 169.922 45.7432 167.7C35.2313 165.479 28.5108 155.156 30.7326 144.644L36.785 116.009ZM111.107 131.718C113.329 121.206 123.651 114.486 134.163 116.708C144.651 118.924 151.365 129.205 149.189 139.692L149.365 138.858C151.481 128.846 161.313 122.446 171.324 124.562C181.335 126.678 187.736 136.509 185.62 146.521L185.44 147.373C187.685 136.892 197.991 130.198 208.485 132.416C218.997 134.638 225.717 144.961 223.495 155.473L217.443 184.108C215.221 194.62 204.898 201.34 194.386 199.118C183.892 196.9 177.177 186.609 179.365 176.116L179.184 176.968C177.068 186.98 167.237 193.38 157.226 191.264C147.214 189.148 140.814 179.317 142.93 169.305L143.106 168.471C140.852 178.942 130.553 185.626 120.065 183.41C109.553 181.188 102.833 170.865 105.055 160.353L111.107 131.718ZM97.0024 108.853C86.9911 106.737 77.1598 113.138 75.0438 123.149L68.6083 153.597C66.4923 163.608 72.8927 173.439 82.9041 175.555C92.9155 177.671 102.747 171.271 104.863 161.259L111.298 130.812C113.414 120.8 107.014 110.969 97.0024 108.853Z" fill="#FAFAFA"/>
<path d="M124.753 181.985C123.974 182.148 123.131 182.142 122.308 181.968L120.172 181.517C119.349 181.343 118.576 181.007 117.929 180.543L102.043 169.144C99.0659 167.008 94.5873 168.117 94.2185 171.047C93.2123 179.038 91.8903 185.229 89.5786 192.945C88.7321 195.771 92.3755 198.591 95.9584 197.843L115.866 193.687C116.645 193.525 117.488 193.531 118.311 193.704L119.078 193.867C119.901 194.041 120.675 194.376 121.321 194.84L137.925 206.754C140.883 208.877 145.332 207.797 145.723 204.89C146.803 196.854 148.09 190.632 150.357 182.852C151.18 180.03 147.542 177.228 143.97 177.974L124.753 181.985Z" fill="#FFCEB9"/>
<path d="M107.571 132.472C104.823 128.95 106.189 123.779 110.318 122.073L133.52 112.488C136.216 111.374 139.323 112.117 141.224 114.33L156.404 132.004C159.12 135.165 158.352 140.008 154.792 142.175L133.049 155.411C130.12 157.194 126.32 156.5 124.21 153.796L107.571 132.472Z" fill="#FFD500"/>
<ellipse cx="122.282" cy="132.085" rx="2.53321" ry="2.30292" transform="rotate(11.9345 122.282 132.085)" fill="#512E0C"/>
<ellipse cx="141.682" cy="136.185" rx="2.53321" ry="2.30292" transform="rotate(11.9345 141.682 136.185)" fill="#512E0C"/>
<circle cx="93.7757" cy="99.5399" r="20.2657" transform="rotate(11.9345 93.7757 99.5399)" fill="#FFD500"/>
<circle cx="93.7754" cy="99.5399" r="13.5105" transform="rotate(11.9345 93.7754 99.5399)" fill="#323232"/>
<circle cx="99.5473" cy="96.7324" r="5.06642" transform="rotate(11.9345 99.5473 96.7324)" fill="white"/>
<circle cx="89.3068" cy="104.349" r="3.37761" transform="rotate(11.9345 89.3068 104.349)" fill="white"/>
<circle cx="179.695" cy="117.7" r="20.2657" transform="rotate(11.9345 179.695 117.7)" fill="#FFD500"/>
<circle cx="179.695" cy="117.7" r="13.5105" transform="rotate(11.9345 179.695 117.7)" fill="#323232"/>
<circle cx="185.467" cy="114.893" r="5.06642" transform="rotate(11.9345 185.467 114.893)" fill="white"/>
<circle cx="175.226" cy="122.509" r="3.37761" transform="rotate(11.9345 175.226 122.509)" fill="white"/>
<ellipse cx="74.3025" cy="126.337" rx="10.1328" ry="6.75523" transform="rotate(11.9345 74.3025 126.337)" fill="#FFCEB9"/>
<ellipse cx="186.659" cy="150.086" rx="10.1328" ry="6.75523" transform="rotate(11.9345 186.659 150.086)" fill="#FFCEB9"/>
<path d="M234.454 87.7431L238.057 80.9327C239.13 78.905 237.535 76.4158 234.792 75.836C232.049 75.2562 229.584 76.8873 229.744 79.1757L230.283 86.8613L230.511 90.7773L233.006 91.1694L234.454 87.7431Z" fill="#FFE591"/>
<path d="M235.497 93.2668L244.121 96.836C246.689 97.8988 249.587 96.7989 250.055 94.5842C250.523 92.3694 248.318 90.1911 245.54 90.1239L236.209 89.8983L231.683 89.6994L231.33 91.3674L235.497 93.2668Z" fill="#FFE591"/>
<path d="M227.094 91.4906L217.764 91.2651C214.985 91.198 212.78 89.0196 213.248 86.8048C213.717 84.59 216.615 83.4903 219.182 84.553L227.806 88.1222L230.625 89.3173L230.732 91.584L227.094 91.4906Z" fill="#FFE591"/>
<path d="M230.17 85.2496L227.364 79.4491C226.307 77.2638 223.13 76.2813 220.859 77.4374C218.589 78.5935 218.405 81.2871 220.482 82.9527L225.998 87.3739L229.87 90.6417L231.892 89.5573L230.17 85.2496Z" fill="#FFE591"/>
<path d="M238.166 89.9458L244.998 88.1346C247.572 87.4522 248.494 84.9145 246.885 82.9385C245.277 80.9625 241.974 80.5755 240.123 82.1461L235.21 86.3151L231.107 89.8089L232.348 91.9887L238.166 89.9458Z" fill="#FFE591"/>
<path d="M237.306 94.0152L242.821 98.4363C244.899 100.102 244.715 102.796 242.444 103.952C240.173 105.108 236.997 104.125 235.94 101.94L233.134 96.1394L230.804 92.1844L233.659 90.8683L237.306 94.0152Z" fill="#FFE591"/>
<path d="M228.093 95.0741L223.18 99.2431C221.329 100.814 218.026 100.427 216.418 98.4508C214.809 96.4748 215.731 93.937 218.305 93.2547L225.138 91.4434L231.082 89.9266L232.265 91.1541L228.093 95.0741Z" fill="#FFE591"/>
<path d="M233.254 94.7937L233.784 102.357C233.942 104.609 231.516 106.214 228.817 105.643C226.117 105.073 224.548 102.623 225.604 100.628L229.149 93.9259L230.749 90.2267L232.773 90.4714L233.254 94.7937Z" fill="#FFE591"/>
<path d="M230.913 94.1938C233.306 94.6996 235.577 93.5433 235.985 91.6112C236.393 89.679 234.785 87.7027 232.391 87.1969C229.998 86.691 227.727 87.8473 227.319 89.7795C226.911 91.7116 228.519 93.688 230.913 94.1938Z" fill="#FFD500"/>
<g style="mix-blend-mode:multiply">
<path fill-rule="evenodd" clip-rule="evenodd" d="M229.839 93.8483C230.174 93.9963 230.533 94.1134 230.913 94.1936C233.306 94.6994 235.577 93.5431 235.985 91.611C236.394 89.6788 234.785 87.7024 232.392 87.1966C232.143 87.144 231.895 87.1094 231.651 87.0917C233.429 87.8776 234.514 89.5349 234.171 91.1608C233.805 92.892 231.944 94.0004 229.839 93.8483Z" fill="#FED402" fill-opacity="0.5"/>
</g>
<path d="M210.434 55.5888L215.09 46.4772C216.477 43.7643 214.495 40.4759 211.033 39.7441C207.571 39.0123 204.428 41.2176 204.598 44.2595L205.169 54.4759L205.401 59.682L208.553 60.1677L210.434 55.5888Z" fill="#FFE591"/>
<path d="M211.674 62.9218L222.533 67.5457C225.766 68.9225 229.449 67.4177 230.073 64.4647C230.697 61.5117 227.938 58.6457 224.425 58.5963L212.623 58.4306L206.899 58.2312L206.429 60.4552L211.674 62.9218Z" fill="#FFE591"/>
<path d="M201.068 60.6801L189.267 60.5146C185.753 60.4653 182.994 57.5991 183.618 54.6461C184.243 51.6931 187.925 50.1884 191.158 51.5651L202.017 56.189L205.567 57.7381L205.669 60.752L201.068 60.6801Z" fill="#FFE591"/>
<path d="M205.049 52.3335L201.583 44.6576C200.277 41.7658 196.272 40.5045 193.382 42.0751C190.493 43.6457 190.221 47.2317 192.826 49.4175L199.74 55.2195L204.592 59.5109L207.166 58.0391L205.049 52.3335Z" fill="#FFE591"/>
<path d="M215.098 58.4656L223.768 55.9577C227.035 55.0129 228.237 51.6236 226.231 49.0182C224.224 46.4127 220.051 45.9455 217.687 48.0616L211.411 53.6783L206.17 58.3852L207.708 61.2671L215.098 58.4656Z" fill="#FFE591"/>
<path d="M213.951 63.8915L220.865 69.6933C223.47 71.8791 223.198 75.4651 220.309 77.0357C217.419 78.6063 213.414 77.3451 212.108 74.4532L208.642 66.7773L205.751 61.5496L209.383 59.7577L213.951 63.8915Z" fill="#FFE591"/>
<path d="M202.28 65.4328L196.004 71.0496C193.64 73.1657 189.467 72.6984 187.46 70.093C185.454 67.4875 186.656 64.0982 189.923 63.1534L198.593 60.6456L206.136 58.5421L207.616 60.1579L202.28 65.4328Z" fill="#FFE591"/>
<path d="M208.814 64.9854L209.376 75.0388C209.543 78.0322 206.45 80.2023 203.043 79.4822C199.637 78.7622 197.687 75.5261 199.051 72.8565L203.633 63.8902L205.711 58.9461L208.268 59.2425L208.814 64.9854Z" fill="#FFE591"/>
<path d="M205.86 64.2208C208.881 64.8592 211.771 63.2883 212.315 60.7121C212.86 58.1359 210.852 55.5299 207.832 54.8915C204.812 54.2531 201.922 55.824 201.377 58.4003C200.833 60.9765 202.84 63.5824 205.86 64.2208Z" fill="#FFD500"/>
<g style="mix-blend-mode:multiply">
<path fill-rule="evenodd" clip-rule="evenodd" d="M204.508 63.7775C204.929 63.9693 205.382 64.1197 205.86 64.2208C208.881 64.8592 211.77 63.2883 212.315 60.7121C212.86 58.1358 210.852 55.5299 207.832 54.8915C207.518 54.825 207.205 54.7825 206.896 54.7626C209.135 55.7822 210.485 57.9716 210.026 60.1398C209.538 62.4479 207.168 63.9491 204.508 63.7775Z" fill="#FED402" fill-opacity="0.5"/>
</g>
<path d="M120.356 108.24C116.027 128.72 95.1087 141.803 73.4795 137.232C51.8503 132.66 38.0149 112.231 42.3436 91.7514C46.6723 71.2714 67.5908 58.1884 89.22 62.76C110.849 67.3316 124.685 87.7603 120.356 108.24Z" stroke="#323232" stroke-width="4.22202"/>
<path d="M229.88 131.39C225.551 151.87 204.633 164.953 183.004 160.381C161.374 155.809 147.539 135.381 151.868 114.901C156.196 94.4208 177.115 81.3378 198.744 85.9094C220.373 90.481 234.209 110.91 229.88 131.39Z" stroke="#323232" stroke-width="4.22202"/>
<path d="M121.207 105.404C133.315 105.884 140.167 107.369 152.238 111.963L150.705 119.217C139.167 114.883 132.375 113.421 119.673 112.658L121.207 105.404Z" fill="#242424"/>
<path d="M233.355 240.596C231.355 238.522 231.277 235.314 233.096 233.08L276.099 180.248L329.769 219.085C332.086 220.762 332.849 223.847 331.49 226.363C324.69 238.953 304.143 274.563 288.141 276.87C272.178 279.171 243.245 250.855 233.355 240.596Z" fill="#FF9E77"/>
<path fill-rule="evenodd" clip-rule="evenodd" d="M261.32 246.534C260.868 246.322 260.402 246.324 260.041 246.538C259.681 246.753 259.457 247.161 259.428 247.659C259.4 248.117 259.533 248.618 259.802 249.07C260.071 249.521 260.447 249.877 260.862 250.071C261.314 250.283 261.78 250.282 262.141 250.067C262.501 249.853 262.725 249.444 262.754 248.946C262.782 248.488 262.649 247.987 262.38 247.536C262.111 247.084 261.735 246.729 261.32 246.534ZM263.819 250.889C262.688 250.486 261.596 250.543 260.744 251.05C259.891 251.557 259.32 252.49 259.134 253.676C258.968 254.742 259.15 255.852 259.622 256.646C259.851 257.031 260.144 257.254 260.491 257.31C260.834 257.365 261.176 257.249 261.514 257.048C261.873 256.834 262.229 256.524 262.578 256.218C262.883 255.952 263.172 255.7 263.421 255.551C263.637 255.423 263.974 255.299 264.331 255.167C265.165 254.86 266.11 254.512 266.359 253.81C266.477 253.477 266.422 253.115 266.196 252.735C265.724 251.941 264.835 251.251 263.819 250.889ZM257.114 248.28C257.474 248.065 257.94 248.064 258.392 248.275C258.808 248.47 259.184 248.826 259.453 249.277C259.721 249.729 259.854 250.23 259.827 250.687C259.798 251.186 259.574 251.594 259.213 251.809C258.853 252.023 258.387 252.025 257.935 251.813C257.52 251.618 257.143 251.262 256.875 250.811C256.606 250.359 256.473 249.859 256.5 249.401C256.53 248.903 256.754 248.494 257.114 248.28ZM265.392 247.862C265.098 247.59 264.747 247.473 264.404 247.535C264.128 247.584 263.881 247.751 263.71 248.003C263.474 248.35 263.395 248.825 263.493 249.305C263.573 249.697 263.763 250.049 264.028 250.296C264.322 250.568 264.672 250.684 265.016 250.623C265.135 250.601 265.248 250.558 265.352 250.497C265.49 250.414 265.612 250.299 265.71 250.155C265.946 249.808 266.025 249.333 265.927 248.853L265.927 248.853C265.847 248.46 265.657 248.108 265.392 247.862ZM256.65 252.202C257.068 252.161 257.523 252.318 257.898 252.633C258.205 252.89 258.423 253.225 258.513 253.576C258.613 253.964 258.547 254.328 258.329 254.6C258.254 254.694 258.162 254.773 258.058 254.835C257.92 254.918 257.76 254.97 257.587 254.987C257.169 255.028 256.715 254.871 256.339 254.556L256.339 254.556C256.032 254.299 255.814 253.964 255.724 253.613C255.625 253.225 255.69 252.861 255.908 252.589C256.083 252.37 256.347 252.232 256.65 252.202Z" fill="white" fill-opacity="0.5"/>
<path fill-rule="evenodd" clip-rule="evenodd" d="M308.183 240.283C308.562 240.462 308.823 240.848 308.899 241.342C308.969 241.795 308.883 242.306 308.658 242.78C308.433 243.255 308.091 243.645 307.696 243.877C307.265 244.13 306.801 244.172 306.422 243.992C306.044 243.813 305.783 243.427 305.707 242.933C305.637 242.48 305.722 241.969 305.948 241.494C306.173 241.02 306.515 240.63 306.91 240.398C307.34 240.145 307.804 240.103 308.183 240.283ZM311.976 242.802C311.9 242.309 311.639 241.923 311.26 241.743C310.881 241.563 310.417 241.605 309.987 241.858C309.592 242.091 309.25 242.48 309.025 242.955C308.8 243.43 308.714 243.941 308.784 244.394C308.86 244.887 309.121 245.273 309.5 245.453C309.879 245.633 310.343 245.591 310.773 245.338C311.168 245.105 311.51 244.716 311.735 244.241C311.96 243.766 312.046 243.255 311.976 242.802ZM309.753 247.304C309.458 246.14 308.801 245.266 307.905 244.84C307.009 244.415 305.917 244.46 304.828 244.967C303.85 245.423 303.03 246.193 302.634 247.027C302.442 247.432 302.419 247.8 302.567 248.119C302.713 248.434 302.999 248.653 303.354 248.822C303.732 249.001 304.188 249.123 304.636 249.243C305.028 249.348 305.398 249.447 305.66 249.572C305.886 249.679 306.177 249.89 306.486 250.113C307.206 250.634 308.022 251.225 308.743 251.041C309.085 250.953 309.355 250.706 309.545 250.306C309.941 249.472 310.019 248.35 309.753 247.304ZM313.142 246.923C313.205 246.528 313.106 246.172 312.864 245.921C312.669 245.719 312.393 245.607 312.089 245.605C311.669 245.603 311.231 245.801 310.886 246.15C310.605 246.435 310.419 246.789 310.362 247.147C310.299 247.542 310.398 247.898 310.641 248.149C310.725 248.236 310.823 248.306 310.933 248.358C311.078 248.427 311.242 248.464 311.416 248.465C311.836 248.467 312.274 248.269 312.618 247.92L312.618 247.92C312.9 247.635 313.086 247.281 313.142 246.923ZM304.667 242.083C304.935 242.407 305.058 242.872 305.005 243.359C304.963 243.758 304.806 244.126 304.565 244.396C304.298 244.695 303.96 244.843 303.612 244.814C303.492 244.804 303.375 244.772 303.265 244.72C303.12 244.651 302.988 244.547 302.877 244.413C302.61 244.089 302.487 243.624 302.539 243.137L302.539 243.137C302.582 242.739 302.739 242.371 302.98 242.1C303.247 241.802 303.585 241.653 303.933 241.682C304.212 241.706 304.473 241.848 304.667 242.083Z" fill="white" fill-opacity="0.5"/>
<path fill-rule="evenodd" clip-rule="evenodd" d="M289.831 252.242C289.349 251.713 288.731 251.459 288.136 251.545C287.54 251.631 287.019 252.049 286.706 252.693C286.418 253.284 286.319 254.02 286.427 254.766C286.534 255.512 286.837 256.19 287.28 256.676C287.763 257.205 288.381 257.46 288.976 257.374C289.571 257.288 290.092 256.87 290.405 256.226C290.693 255.635 290.792 254.898 290.685 254.152C290.577 253.407 290.274 252.728 289.831 252.242ZM290.747 259.385C289.471 258.229 287.993 257.704 286.585 257.907C285.177 258.11 283.907 259.031 283.01 260.5C282.203 261.82 281.834 263.391 282.023 264.702C282.115 265.338 282.379 265.795 282.809 266.06C283.233 266.321 283.749 266.355 284.307 266.275C284.901 266.189 285.542 265.973 286.173 265.761C286.724 265.576 287.245 265.401 287.657 265.341C288.012 265.29 288.527 265.311 289.072 265.333C290.346 265.384 291.79 265.443 292.505 264.65C292.845 264.273 292.971 263.764 292.881 263.136C292.692 261.826 291.894 260.423 290.747 259.385ZM283.301 252.242C283.896 252.156 284.514 252.41 284.996 252.939C285.439 253.425 285.742 254.104 285.85 254.849C285.957 255.595 285.858 256.332 285.57 256.923C285.257 257.567 284.736 257.985 284.141 258.071C283.546 258.157 282.928 257.902 282.445 257.373C282.002 256.887 281.699 256.209 281.592 255.463C281.484 254.717 281.583 253.981 281.871 253.39C282.184 252.746 282.705 252.328 283.301 252.242ZM294.494 256.24C294.255 255.718 293.854 255.371 293.366 255.264C292.972 255.177 292.555 255.262 292.189 255.502C291.686 255.832 291.32 256.417 291.185 257.107C291.075 257.671 291.134 258.241 291.35 258.714C291.589 259.236 291.99 259.583 292.478 259.69C292.648 259.727 292.821 259.733 292.993 259.708C293.221 259.675 293.446 259.589 293.655 259.452C294.158 259.122 294.524 258.537 294.659 257.847L294.659 257.847C294.769 257.283 294.71 256.713 294.494 256.24ZM280.529 257.183C281.105 257.357 281.622 257.815 281.946 258.439C282.211 258.948 282.316 259.512 282.242 260.027C282.16 260.595 281.874 261.041 281.435 261.282C281.283 261.365 281.118 261.42 280.946 261.444C280.718 261.477 280.478 261.458 280.24 261.386C279.663 261.211 279.147 260.753 278.823 260.13L278.823 260.13C278.558 259.62 278.453 259.056 278.527 258.542C278.609 257.973 278.895 257.528 279.334 257.287C279.687 257.093 280.111 257.056 280.529 257.183Z" fill="white" fill-opacity="0.5"/>
<path fill-rule="evenodd" clip-rule="evenodd" d="M289.56 140.235C301.413 127.598 317.262 114.571 329.225 118.994C345.457 124.996 336.901 163.37 331.493 182.519C331.79 183.773 332.031 185.032 332.213 186.294C336.072 213.061 312.929 238.547 282.656 242.911C252.384 247.275 222.408 229.446 218.549 202.68C218.336 201.201 218.204 199.704 218.149 198.193C207.486 181.144 189.055 147.443 202.765 137.224C213.004 129.592 231.92 137.641 246.868 146.428C253.126 142.381 260.131 139.556 267.602 138.479C275.041 137.406 282.494 138.132 289.56 140.235Z" fill="white"/>
<path fill-rule="evenodd" clip-rule="evenodd" d="M228.099 223.669C256.443 218.876 275.658 190.278 271.173 159.167C270.122 151.874 267.861 145.082 264.646 139C258.281 140.329 252.293 142.919 246.868 146.428C231.92 137.641 213.004 129.592 202.765 137.224C189.055 147.443 207.486 181.144 218.149 198.193C218.204 199.704 218.336 201.201 218.549 202.68C219.686 210.565 223.089 217.674 228.099 223.669Z" fill="#FED402"/>
<path fill-rule="evenodd" clip-rule="evenodd" d="M273.977 137.99C279.271 137.934 284.514 138.734 289.56 140.235C301.413 127.598 317.262 114.571 329.225 118.994C345.457 124.996 336.901 163.371 331.493 182.52C331.79 183.773 332.031 185.032 332.213 186.295C333.336 194.084 332.172 201.766 329.211 208.85C302.153 209.969 277.766 188.557 273.481 158.834C272.448 151.666 272.673 144.631 273.977 137.99Z" fill="#FED402"/>
<g style="mix-blend-mode:multiply">
<path d="M207.845 145.645C200.833 151.769 211.559 172.184 216.648 180.916C217.619 182.582 220.047 182.328 220.791 180.548C225.168 170.085 230.346 163.407 238.767 153.664C239.726 152.554 239.446 150.861 238.141 150.191C231.813 146.941 215.071 139.333 207.845 145.645Z" fill="#FED402" fill-opacity="0.5"/>
<path d="M326.95 128.475C335.406 132.369 330.882 154.982 328.467 164.796C328.006 166.669 325.605 167.111 324.389 165.614C317.235 156.813 310.382 151.869 299.551 144.901C298.318 144.108 298.109 142.404 299.171 141.393C304.324 136.488 318.235 124.461 326.95 128.475Z" fill="#FED402" fill-opacity="0.5"/>
</g>
<ellipse cx="251.094" cy="187.387" rx="6.41232" ry="8.16114" transform="rotate(-8.203 251.094 187.387)" fill="#56392B"/>
<ellipse cx="253.235" cy="185.9" rx="1.74882" ry="2.33175" transform="rotate(-8.203 253.235 185.9)" fill="white"/>
<ellipse cx="6.41232" cy="8.16114" rx="6.41232" ry="8.16114" transform="matrix(-0.989769 0.142681 0.142681 0.989769 304.742 171.408)" fill="#56392B"/>
<ellipse cx="1.74882" cy="2.33175" rx="1.74882" ry="2.33175" transform="matrix(-0.989769 0.142681 0.142681 0.989769 298.483 177.022)" fill="white"/>
<path d="M286.227 198.224C286.548 200.455 283.193 202.784 278.732 203.428C274.27 204.071 270.393 202.784 270.072 200.553C269.75 198.323 272.94 194.839 277.401 194.196C281.862 193.553 285.905 195.994 286.227 198.224Z" fill="#56392B"/>
<circle cx="281.362" cy="197.159" r="1.16588" transform="rotate(-8.203 281.362 197.159)" fill="white"/>
<path d="M277.9 197.658L278.898 204.581C279.265 207.131 277.497 209.495 274.947 209.863L273.217 210.112C271.623 210.342 270.146 209.236 269.916 207.643V207.643" stroke="#56392B" stroke-width="2.33175" stroke-linecap="round" stroke-linejoin="round"/>
<path d="M277.9 197.658L278.898 204.581C279.265 207.131 281.63 208.899 284.179 208.532L285.91 208.282C287.503 208.053 288.609 206.575 288.379 204.982V204.982" stroke="#56392B" stroke-width="2.33175" stroke-linecap="round" stroke-linejoin="round"/>
<ellipse cx="248.23" cy="204.291" rx="9.32701" ry="5.82938" transform="rotate(-8.203 248.23 204.291)" fill="#FEB1AA"/>
<ellipse cx="308.235" cy="195.641" rx="9.32701" ry="5.82938" transform="rotate(-8.203 308.235 195.641)" fill="#FEB1AA"/>
</svg>
