<svg width="148" height="157" viewBox="0 0 148 157" fill="none" xmlns="http://www.w3.org/2000/svg">
<path fill-rule="evenodd" clip-rule="evenodd" d="M3.54733 74.7006C4.56179 71.9134 7.64365 70.4763 10.4308 71.4908L21.5335 75.5318C23.9216 76.401 25.3185 78.7878 25.0316 81.2066C25.3201 81.6035 25.5587 82.0468 25.7349 82.5309C26.7493 85.3181 25.3122 88.3999 22.525 89.4144L11.4224 93.4554C8.63516 94.4699 5.55331 93.0328 4.53885 90.2456C3.52439 87.4584 4.96148 84.3766 7.74868 83.3621L9.69543 82.6535L6.75717 81.5841C3.96996 80.5696 2.53287 77.4878 3.54733 74.7006Z" fill="#282828"/>
<ellipse cx="66.0575" cy="83.0395" rx="52.6315" ry="54.2426" transform="rotate(-90 66.0575 83.0395)" fill="#282828"/>
<path fill-rule="evenodd" clip-rule="evenodd" d="M91.1172 129.73C91.0927 129.733 91.0683 129.736 91.0438 129.74C67.2737 132.916 46.2374 122.272 44.058 105.964C42.9451 97.6365 46.9645 89.4426 54.3301 82.9943C46.9645 76.5461 42.945 68.3522 44.0579 60.0246C46.2321 43.7562 67.1724 33.1234 90.8721 36.2262C108.349 44.9656 120.3 62.6484 120.3 83.0397C120.3 103.335 108.46 120.948 91.1172 129.73Z" fill="white"/>
<circle cx="87.5398" cy="114.726" r="8.05584" transform="rotate(-90 87.5398 114.726)" fill="#FFC6AD"/>
<circle cx="87.5397" cy="51.3532" r="8.05584" transform="rotate(-90 87.5397 51.3532)" fill="#FFC6AD"/>
<g filter="url(#filter0_f_1_161)">
<path d="M80.2475 135.357C79.4309 135.227 79.059 134.26 79.5618 133.603C101.389 105.105 100.42 59.4369 79.5354 32.9588C79.0337 32.3228 79.3653 31.3713 80.1578 31.2035L102.798 26.4071C106.61 25.5996 110.516 27.449 112.105 31.0063C127.354 65.1252 127.328 102.653 112.027 134.569C110.456 137.847 106.865 139.586 103.275 139.016L80.2475 135.357Z" fill="#8ED2C9"/>
</g>
<path d="M80.2475 135.357C79.4309 135.227 79.059 134.26 79.5618 133.603C101.389 105.105 100.42 59.4369 79.5354 32.9588C79.0337 32.3228 79.3653 31.3713 80.1578 31.2035L102.798 26.4071C106.61 25.5996 110.516 27.449 112.105 31.0063C127.354 65.1252 127.328 102.653 112.027 134.569C110.456 137.847 106.865 139.586 103.275 139.016L80.2475 135.357Z" fill="#8ED2C9"/>
<g filter="url(#filter1_f_1_161)">
<path d="M108.485 65.8612C108.485 67.1163 109.561 68.1051 110.811 67.9928C123.824 66.8232 131.251 65.038 140.703 58.2416C141.368 57.7637 141.688 56.9402 141.538 56.1354L141.519 56.0356C143.191 55.4603 144.531 54.5141 145.733 53.4066C146.169 53.0046 146.197 52.3251 145.795 51.8888C145.393 51.4525 144.714 51.4247 144.277 51.8266C143.305 52.7227 142.302 53.4343 141.12 53.8944L140.639 51.3135C142.473 50.7538 143.912 49.7554 145.196 48.5731C145.632 48.1711 145.66 47.4916 145.258 47.0553C144.856 46.619 144.177 46.5912 143.74 46.9931C142.675 47.9741 141.575 48.734 140.242 49.1848L139.822 46.9347C141.535 46.3625 142.899 45.403 144.122 44.2766C144.558 43.8747 144.586 43.1952 144.184 42.7589C143.782 42.3226 143.102 42.2947 142.666 42.6967C141.67 43.6141 140.643 44.3382 139.424 44.7969L139.005 42.5487C140.598 41.9688 141.887 41.0498 143.048 39.9802C143.484 39.5782 143.512 38.8987 143.11 38.4624C142.708 38.0261 142.028 37.9983 141.592 38.4002C140.666 39.2532 139.713 39.9391 138.604 40.3999L138.185 38.1556C139.662 37.5728 140.875 36.6956 141.973 35.6837C142.41 35.2818 142.438 34.6023 142.036 34.166C141.634 33.7297 140.954 33.7018 140.518 34.1038C139.663 34.8913 138.785 35.5364 137.782 35.9935L137.365 33.7551C138.728 33.1745 139.865 32.3407 140.899 31.3873C141.336 30.9854 141.364 30.3058 140.962 29.8695C140.56 29.4333 139.88 29.4054 139.444 29.8073C138.661 30.5286 137.859 31.1303 136.959 31.5775L136.543 29.3471C137.795 28.7736 138.855 27.9848 139.825 27.0908C140.262 26.6889 140.289 26.0094 139.887 25.5731C139.486 25.1368 138.806 25.1089 138.37 25.5109C137.506 26.3068 136.618 26.9572 135.602 27.4151C134.947 26.9289 134.028 26.8189 133.236 27.2605C124.853 31.9313 119.176 34.2117 110.209 36.1455C109.209 36.3611 108.485 37.2402 108.485 38.2628L108.485 65.8612Z" fill="#8ED2C9"/>
</g>
<path fill-rule="evenodd" clip-rule="evenodd" d="M108.485 65.8612C108.485 67.1163 109.561 68.1051 110.811 67.9928C123.824 66.8232 131.251 65.038 140.703 58.2416C141.368 57.7637 141.688 56.9402 141.538 56.1354L141.519 56.0358C143.191 55.4604 144.531 54.5143 145.733 53.4068C146.169 53.0049 146.197 52.3254 145.795 51.8891C145.393 51.4528 144.713 51.4249 144.277 51.8269C143.305 52.7229 142.302 53.4345 141.12 53.8945L140.639 51.3138C142.473 50.7541 143.912 49.7557 145.196 48.5734C145.632 48.1715 145.66 47.492 145.258 47.0557C144.856 46.6194 144.176 46.5915 143.74 46.9935C142.675 47.9744 141.575 48.7343 140.242 49.185L139.822 46.935C141.535 46.3628 142.899 45.4033 144.122 44.277C144.558 43.8751 144.586 43.1955 144.184 42.7593C143.782 42.323 143.102 42.2951 142.666 42.697C141.67 43.6145 140.643 44.3385 139.424 44.7972L139.005 42.5491C140.598 41.9691 141.886 41.0501 143.047 39.9806C143.484 39.5787 143.512 38.8991 143.11 38.4628C142.708 38.0266 142.028 37.9987 141.592 38.4006C140.666 39.2536 139.713 39.9394 138.604 40.4002L138.186 38.156C139.662 37.5733 140.875 36.6961 141.973 35.6843C142.41 35.2823 142.438 34.6028 142.036 34.1665C141.634 33.7302 140.954 33.7024 140.518 34.1043C139.663 34.8918 138.785 35.5369 137.782 35.9939L137.365 33.7555C138.728 33.1749 139.864 32.3412 140.899 31.3879C141.336 30.9859 141.363 30.3064 140.961 29.8701C140.56 29.4338 139.88 29.406 139.444 29.8079C138.661 30.5291 137.859 31.1308 136.959 31.578L136.543 29.3476C137.795 28.7741 138.855 27.9853 139.825 27.0914C140.261 26.6895 140.289 26.01 139.887 25.5737C139.485 25.1374 138.806 25.1096 138.37 25.5115C137.506 26.3073 136.619 26.9576 135.603 27.4154C134.947 26.929 134.028 26.8188 133.236 27.2605C124.853 31.9313 119.176 34.2117 110.209 36.1455C109.209 36.3611 108.485 37.2402 108.485 38.2628L108.485 65.8612Z" fill="#8ED2C9"/>
<path d="M116.636 52.8418C116.594 52.7689 116.548 52.6973 116.499 52.6272C115.651 51.4297 114 51.1414 112.811 51.9831C111.621 52.8249 111.344 54.4779 112.192 55.6754C112.274 55.7916 112.364 55.8993 112.46 55.9982C111.435 56.0719 110.501 56.7213 110.132 57.727C109.632 59.0875 110.356 60.585 111.749 61.0717C112.491 61.3311 113.274 61.251 113.918 60.9134C113.905 61.0214 113.898 61.1312 113.897 61.2426C113.893 62.7177 115.065 63.8985 116.514 63.88C117.963 63.8615 119.141 62.6507 119.145 61.1756C119.146 61.096 119.142 61.0172 119.136 60.9395C119.207 60.9714 119.28 61.0006 119.355 61.0269C120.748 61.5136 122.282 60.8053 122.781 59.4447C123.28 58.0842 122.557 56.5868 121.164 56.1001C121.04 56.0568 120.916 56.023 120.791 55.9983C121.225 55.5164 121.492 54.8755 121.494 54.175C121.498 52.6999 120.327 51.5191 118.878 51.5376C117.931 51.5497 117.1 52.0707 116.636 52.8418Z" fill="white"/>
<g style="mix-blend-mode:multiply">
<circle cx="116.655" cy="57.1557" r="1.99026" transform="rotate(-10.6322 116.655 57.1557)" fill="#FED402"/>
</g>
<path d="M126.749 36.9273C126.69 36.8254 126.626 36.7253 126.557 36.6274C125.372 34.9538 123.065 34.5508 121.402 35.7272C119.74 36.9036 119.353 39.214 120.537 40.8876C120.652 41.05 120.778 41.2005 120.912 41.3388C119.48 41.4417 118.174 42.3493 117.658 43.7549C116.96 45.6563 117.972 47.7492 119.918 48.4294C120.956 48.792 122.049 48.68 122.95 48.2082C122.931 48.3591 122.922 48.5126 122.921 48.6683C122.915 50.7299 124.553 52.3801 126.578 52.3542C128.603 52.3284 130.25 50.6362 130.256 48.5746C130.256 48.4633 130.251 48.3533 130.242 48.2446C130.342 48.2893 130.444 48.3301 130.549 48.3668C132.495 49.047 134.639 48.057 135.337 46.1556C136.035 44.2541 135.023 42.1613 133.077 41.4811C132.904 41.4206 132.73 41.3734 132.555 41.3388C133.163 40.6653 133.535 39.7696 133.538 38.7906C133.544 36.729 131.907 35.0787 129.881 35.1046C128.558 35.1215 127.397 35.8496 126.749 36.9273Z" fill="white"/>
<g style="mix-blend-mode:multiply">
<circle cx="126.774" cy="42.9569" r="2.78158" transform="rotate(-10.6322 126.774 42.9569)" fill="#FED402"/>
</g>
<circle cx="6.98173" cy="6.98173" r="6.98173" transform="matrix(0 1 1 0 66.5947 100.225)" fill="#282828"/>
<circle cx="1.61117" cy="1.61117" r="1.61117" transform="matrix(0 1 1 0 69.8171 102.373)" fill="white"/>
<circle cx="6.98173" cy="6.98173" r="6.98173" transform="matrix(0 1 1 0 66.5948 51.8899)" fill="#282828"/>
<circle cx="1.61117" cy="1.61117" r="1.61117" transform="matrix(0 1 1 0 69.8171 54.038)" fill="white"/>
<path d="M75.7245 73.3726C73.055 73.3726 70.891 77.7006 70.891 83.0396C70.891 88.3785 73.055 92.7066 75.7245 92.7066C78.394 92.7066 83.7803 88.3785 83.7803 83.0396C83.7803 77.7006 78.394 73.3726 75.7245 73.3726Z" fill="#FED402"/>
<circle cx="132.115" cy="138.893" r="2.14822" transform="rotate(-90 132.115 138.893)" fill="white"/>
<circle cx="83.7806" cy="105.596" r="2.14822" transform="rotate(-90 83.7806 105.596)" fill="white"/>
<circle cx="112.244" cy="15.9075" r="1.61117" transform="rotate(-90 112.244 15.9075)" fill="white"/>
<circle cx="132.652" cy="22.3523" r="1.61117" transform="rotate(-90 132.652 22.3523)" fill="white"/>
<circle cx="114.393" cy="150.172" r="1.61117" transform="rotate(-90 114.393 150.172)" fill="white"/>
<defs>
<filter id="filter0_f_1_161" x="78.2234" y="25.1455" width="46.3733" height="115.052" filterUnits="userSpaceOnUse" color-interpolation-filters="sRGB">
<feFlood flood-opacity="0" result="BackgroundImageFix"/>
<feBlend mode="normal" in="SourceGraphic" in2="BackgroundImageFix" result="shape"/>
<feGaussianBlur stdDeviation="0.537056" result="effect1_foregroundBlur_1_161"/>
</filter>
<filter id="filter1_f_1_161" x="107.411" y="24.1526" width="39.7421" height="44.923" filterUnits="userSpaceOnUse" color-interpolation-filters="sRGB">
<feFlood flood-opacity="0" result="BackgroundImageFix"/>
<feBlend mode="normal" in="SourceGraphic" in2="BackgroundImageFix" result="shape"/>
<feGaussianBlur stdDeviation="0.537056" result="effect1_foregroundBlur_1_161"/>
</filter>
</defs>
</svg>
