<svg xmlns="http://www.w3.org/2000/svg" xmlns:xlink="http://www.w3.org/1999/xlink" id="eDIrPhN9jof1" viewBox="0 0 240 180"><style><![CDATA[#eDIrPhN9jof2_tr {animation: eDIrPhN9jof2_tr__tr 6000ms linear infinite normal forwards}@keyframes eDIrPhN9jof2_tr__tr { 0% {transform: translate(23.712103px,139.123983px) rotate(20deg)} 23.333333% {transform: translate(23.712103px,139.123983px) rotate(0deg)} 35% {transform: translate(23.712103px,139.123983px) rotate(2deg)} 50% {transform: translate(23.712103px,139.123983px) rotate(4deg)} 75% {transform: translate(23.712103px,139.123983px) rotate(0deg)} 100% {transform: translate(23.712103px,139.123983px) rotate(20deg)}} #eDIrPhN9jof3_tr {animation: eDIrPhN9jof3_tr__tr 6000ms linear infinite normal forwards}@keyframes eDIrPhN9jof3_tr__tr { 0% {transform: translate(147.644092px,100.809279px) rotate(0deg);animation-timing-function: cubic-bezier(0.47,0,0.745,0.715)} 23.333333% {transform: translate(147.644092px,100.809279px) rotate(-8deg);animation-timing-function: cubic-bezier(0.47,0,0.745,0.715)} 51.666667% {transform: translate(147.644092px,100.809279px) rotate(0deg);animation-timing-function: cubic-bezier(0.47,0,0.745,0.715)} 75% {transform: translate(147.644092px,100.809279px) rotate(20deg);animation-timing-function: cubic-bezier(0.47,0,0.745,0.715)} 100% {transform: translate(147.644092px,100.809279px) rotate(0deg)}} #eDIrPhN9jof11_to {animation: eDIrPhN9jof11_to__to 6000ms linear infinite normal forwards}@keyframes eDIrPhN9jof11_to__to { 0% {transform: translate(147.361351px,35.825634px)} 30% {transform: translate(147.361351px,35.825634px)} 60% {transform: translate(147px,43px);animation-timing-function: cubic-bezier(0.42,0,0.58,1)} 100% {transform: translate(147.361351px,35.825634px)}}]]></style><g id="eDIrPhN9jof2_tr" transform="translate(23.712103,139.123983) rotate(20)"><g transform="translate(-23.838869,-138.111184)"><g id="eDIrPhN9jof3_tr" transform="translate(147.644092,100.809279) rotate(0)"><path d="M167.876,107.06c1.015,1.194,1.851,2.504,2.512,3.932.975,2.187.909,5.174-1.486,6.415-3.232,1.676-8.044-.858-10.848-2.494-3.305-1.927-6.332-4.22-9.081-6.882-1.665-1.618-6.423-5.616-6.014-8.1974.398-2.523,5.766-4.743,7.84-5.4769c3.574-1.267,7.105,3.2569,9.504,5.4587c2.468,2.2606,5.356,4.5496,7.573,7.2446Z" transform="translate(-147.644092,-100.809279)" fill="#dbbfa0"></path></g><path d="M129.014,88.719c2.421,3.2752,5.01,6.5577,8.347,8.9274c1.862,1.3619,3.918,2.2894,6.171,2.7856c2.329.453,4.626.066,6.97.121c4.462.124,8.405-1.4424,12.36-3.593c4.571-2.4574,8.756-5.4587,12.549-9.0005c4.535-4.272,8.406-9.0807,11.615-14.4226c1.873-3.089,3.531-6.2875,4.977-9.5992.682-1.5518,1.289-3.1365,1.946-4.7065.5-1.2123,1.263-4.0384-1.044-3.8449-1.724.1461-3.195,1.2999-4.831,1.7782-1.829.5112-3.692.785-5.59.8216-1.304.0401-2.731.0365-3.739-.7924-.124-.1059-.252-.2702-.168-.4235.066-.073.142-.1132.237-.1278c1.702-.4564,3.421-.8763,5.094-1.4277c2.505-.8288,4.955-1.8001,7.346-2.91c2.129-.9786,4.258-2.2383,5.678-4.1516c1.559-2.1031,1.742-5.7142,2.209-8.3067c1.099-6.2583,1.796-12.5641,2.092-18.9137.362-7.1236-5.042-11.4066-9.059-9.1282-10.519,6.021-15.047,10.0301-29.82,13.3017-18.556,4.104-25.219-3.4322-31.755-2.0375-7,1.4752-20.758,5.1776-16.424,32.9858c1.895,12.031,7.657,22.9594,14.839,32.6645Z" fill="#eed1b0"></path><path d="M97.7265,131.198c1.0844,1.132,1.9936,2.392,2.7345,3.772c1.107,2.125,1.216,5.119-1.1024,6.492-3.1328,1.862-8.0766-.387-10.9758-1.855-3.4139-1.731-6.5686-3.841-9.4714-6.339-1.7526-1.511-6.7293-5.228-6.481-7.828.2519-2.541,5.4769-5.072,7.5034-5.93c3.5015-1.471,7.2879,2.837,9.811,4.893c2.5851,2.114,5.6011,4.239,7.9817,6.795Z" fill="#dbbfa0"></path><path d="M140.253,124.18c.851,1.023,1.64,2.184,1.793,3.502.311,2.709-2.293,5.082-4.998,5.422-3.542.442-7.31-1.022-10.115-3.027-2.88-2.067-5.78-4.155-8.241-6.704-1.887-1.946-5.568-6.083-5.214-9.066.322-2.695,4.152-3.257,6.244-3.658c2.092-.402,3.637-.041,5.386,1.106c5.17,3.385,11.187,7.664,15.145,12.425Z" fill="#eed1b0"></path><path d="M82.9059,140.458c.8508,1.022,1.6394,2.183,1.7891,3.501.3141,2.71-2.2893,5.079-4.9949,5.419-3.5381.442-7.3099-1.019-10.1105-3.027-2.8881-2.063-5.7836-4.152-8.2482-6.704-1.8841-1.946-5.5682-6.083-5.2141-9.066.325-2.695,4.1515-3.257,6.2437-3.659c2.0922-.401,3.6404-.036,5.3857,1.107c5.1739,3.388,11.1876,7.671,15.1492,12.429Z" fill="#eed1b0"></path><path d="M126.002,26.3915c.636-.3761,3.641-2.5778,3.097-3.4432-.577-.9164-1.487-1.6686-2.031-2.6179-.544-.9494-1.077-1.9681-1.588-2.9649-2.11-4.1698-3.991-8.52942-7.047-12.12229-.894-1.04792-2.194-1.99361-3.48-.9895-1.759,1.36558-.507,3.70241.059,5.34549.489,1.4204.456,3.3774-.913,3.9909-1.117.4965-2.37-.241-3.363-.9603-4.604-3.34461-9.095-6.94479-14.2435-9.34369-5.1483-2.402546-11.1949-3.501585-16.5586-1.61752-.3798.09859-.6938.29576-.9421.60247-.3578.53674-.0839,1.25604.2666,1.79643c2.5048,3.88498,8.4892,5.56092,8.9457,10.16151-5.1995-1.654-10.4646-3.2825-15.9124-3.6732-5.4477-.3906-11.151.5842-15.6019,3.7463-.5514.3907-1.0918.8471-1.362,1.4787-1.3802,3.4432,6.733,4.7029,5.9261,8.325-7.9562,2.0447-15.6312,4.8635-23.0178,8.4527c2.3697,3.8339,8.9092,2.1543,12.0128,5.4222.3322.3542.628.8069.5367,1.2889-.0913.5733-.6645.9238-1.1903,1.183-7.1456,3.5418-15.5691,4.7467-21.6522,9.906-.5951.5075-1.1903,1.0771-1.3875,1.8475-.5805,2.2273,2.3588,3.6294,4.6518,3.8302c2.293.1972,5.2542.6755,5.6558,2.9393.3396,1.9352-1.581,3.4213-3.1729,4.5824-2.0886,1.508-3.9726,3.2351-5.6559,5.1885-1.2816,1.4861-2.4792,3.2022-2.6216,5.1629s1.1538,4.1406,3.1145,4.3086c1.1465.0985,2.3624-.4784,3.4249-.0256c1.5957.6755,1.519,3.0087.7559,4.5678-1.7125,3.5015-5.2506,5.6558-8.314,8.0803-3.0635,2.4244-6.0064,5.8092-5.6376,9.6975l7.6859-1.7706c1.2853-.2921,2.9247-.4527,3.6404.6536.5659.88.1716,2.041-.2374,3.005-1.2049,2.855-2.4135,5.711-3.6147,8.566-.4163.979-.8106,2.18-.1826,3.038.4418.606,1.2524.807,1.9973.891c2.1944.241,4.4144-.179,6.6161-.015s4.5787,1.117,5.4514,3.144c.9347,2.18-.2081,4.695-1.6504,6.576-1.4459,1.884-3.257,3.607-3.9069,5.889l12.1771-1.76c1.0771-.153,2.3149-.244,3.0452.537c2.0995,2.275-3.7718,5.265-2.6363,8.143.953,2.409,4.8453.832,7.058,2.183c1.1684.708,1.6978,2.176,2.8407,2.921c1.0954.716,2.523.621,3.8156.398c2.3733-.416,4.6335-1.161,6.7877-2.238c2.1543-1.074,4.1077-2.432,5.8677-4.079.7886-.741,1.6869-1.595,2.764-1.489.5623.058,1.0625.376,1.5883.58c2.4719.957,5.1848-.683,7.0397-2.578c1.8548-1.891,3.5016-4.202,5.9845-5.115.4126-.153.8872-.256,1.2779-.055.88.446.5404,1.8,1.0187,2.666.7558,1.387,2.8736.777,4.1954-.088c3.7752-2.461,7.0582-5.462,9.8472-9.004.555-.701,1.22-1.486,2.107-1.479.694,0,1.263.5,1.866.84c2.662,1.497,5.995-.051,8.387-1.943c2.392-1.891,4.732-4.264,7.766-4.582c2.081-.212,4.155.606,6.244.442c3.56-.267,5.886-3.148,8-5.703.847-1.03,7.328-7.376,6.138-8.815-.935-1.1243-3.411-1.2338-4.535-.4634-.139.0949-.296.2044-.453.1497-.095-.0438-.172-.1095-.223-.2008-1.668-2.2784-2.756-3.8996-5.163-5.4076-.383-.241-.807-.4966-1.256-.4856-.233,0-.46.0803-.693.0694-.464-.0584-.807-.2958-1.026-.712-.201-.3871-.358-.7887-.479-1.2086-.507-1.4605-2.351-4.6956-3.845-5.3711-.303-.0876-.573-.2409-.806-.4564-.11-.1497-.187-.3176-.23-.4965-.862-2.6691-1.969-4.6591-3.977-6.6892-1.033-1.0443-2.505-1.2159-2.844-2.8809-.186-.9128-.026-1.8548.146-2.7677.613-3.3665-1.559-7.0944-3.699-9.57-.292-.2775-.544-.5915-.752-.9384-.716-1.4897,1.077-3.173,1.157-4.67.081-1.4934-.087-3.2679-.806-4.5568-.205-.3578-.453-.7157-.442-1.1209c0-.4601.347-.8325.555-1.2415.602-1.1721.113-2.9283-.124-4.1515-.289-1.4678-.672-2.9101-1.096-4.345-.055-.1498-.08-.2995-.08-.4565.022-.4235.405-.7156.719-1.0041c1.676-1.5299,2.731-4.9803,2.301-7.1857-.052-.1753-.059-.3578-.03-.5404.084-.3286.435-.5002.742-.6572c1.347-.6792,3.012-2.0009,3.454-3.5199.179-.628-.019-1.3291.098-1.9461.084-.4418.614-.6098,1.03-.7777.215-.0877.423-.1863.624-.3031Z" fill="#5a4f3d"></path><path d="M194.507,17.895c2.889,2.5157,6.708,2.8553,8.533.7558c1.826-2.0995.968-5.8348-1.916-8.3505-2.889-2.51577-6.712-2.85535-8.537-.7595-1.826,2.0958-.968,5.8384,1.92,8.3542Z" fill="#5a4f3d"></path><path d="M153.602,38.8496c.274.555.497,1.1319.657,1.7307.165.5988.267,1.2086.311,1.8256.044.6208.025,1.2378-.051,1.8513-.081.617-.219,1.2195-.413,1.8073-.197.5879-.449,1.1502-.759,1.6906-.307.5367-.665,1.0406-1.07,1.508-.409.4673-.855.8909-1.348,1.2706-.489.3798-1.011.7084-1.566.9859s-1.132.4965-1.731.6609c-.595.1643-1.205.2665-1.822.3103-.62.0438-1.237.0256-1.851-.0548-.617-.0766-1.216-.2154-1.804-.4125-.587-.1972-1.153-.4492-1.69-.7559s-1.041-.6645-1.508-1.0734c-.471-.4053-.895-.8544-1.274-1.3437-.38-.4929-.705-1.0151-.983-1.5701-.277-.555-.496-1.1319-.661-1.7307-.16-.5988-.266-1.2049-.31-1.8256-.04-.6171-.025-1.2342.055-1.8512.077-.6135.215-1.2159.412-1.8038.198-.5915.45-1.1538.756-1.6905.307-.5404.665-1.0443,1.07-1.5117.409-.4673.858-.8909,1.347-1.2706.49-.3797,1.012-.7084,1.567-.9859s1.132-.4965,1.731-.6608c.598-.1607,1.204-.2666,1.825-.3104.617-.0402,1.234-.0256,1.851.0548.614.0766,1.216.2154,1.804.4126.588.1971,1.15.4491,1.687.7558.54.3067,1.044.6645,1.512,1.0735.467.4052.891.8544,1.27,1.3473.38.4893.709,1.0114.986,1.5664Z" fill="#fff"></path><g id="eDIrPhN9jof11_to" transform="translate(147.361351,35.825634)"><path d="M146.347,37.3709c1.202.785,2.633.7266,3.192-.1351.558-.858.04-2.1908-1.165-2.9612-1.201-.7704-2.629-.7266-3.188.1351-.562.8581-.043,2.1762,1.161,2.9612Z" transform="translate(-147.361351,-35.825634)" fill="#5a4f3d"></path></g><path d="M151.053,67.4977c.245.4089.446.8398.603,1.2889.161.4491.274.9092.339,1.3838.07.471.088.9457.063,1.4204-.026.4747-.095.9457-.212,1.4057-.121.4601-.281.9092-.486,1.3364-.208.4309-.453.8361-.737,1.2195-.285.3798-.607.7303-.961,1.048s-.737.5988-1.146.8434c-.409.241-.84.4418-1.289.6025-.449.157-.909.2702-1.38.3395-.471.0658-.946.0877-1.421.0621-.474-.0255-.945-.0986-1.405-.2154-.46-.1169-.906-.2812-1.337-.4856s-.836-.4528-1.216-.7376c-.379-.2848-.73-.6061-1.048-.9603-.317-.3542-.598-.7376-.843-1.1465-.241-.4089-.442-.8398-.602-1.2889-.157-.4491-.271-.9092-.34-1.3802-.066-.4747-.088-.9457-.062-1.424.025-.4747.098-.942.215-1.4057.117-.4601.281-.9056.486-1.3364.204-.4309.453-.8362.738-1.2159.284-.3834.606-.7339.96-1.0516.354-.3176.734-.5988,1.143-.8434.412-.241.839-.4418,1.289-.5988.449-.1607.909-.2739,1.38-.3396.474-.0694.945-.0913,1.424-.0657.474.0255.942.0986,1.402.2154.464.1205.909.2812,1.34.4856.427.2081.832.4528,1.216.7376.379.2848.73.6061,1.048.9603.317.3542.598.7375.839,1.1465Z" fill="#db6f3d"></path><path d="M98.6762,48.5694c-1.7636-1.6869-4.283-2.8115-6.7659-3.9507-2.5194-1.1246-5.1081-2.0447-7.7699-2.7604-.0329,0-.0183-.1132.0182-.1132c2.8553.0694,5.6741.4309,8.4564,1.0771c2.7385.7376,5.6814,1.665,7.832,4.1333.519.6536-1.3546,2.0301-1.7708,1.6139Z" fill="#8e8171"></path><path d="M99.2748,65.6318c-3.8521-2.45-8.2848-4.104-13.0753-4.2829-.0292,0-.0401-.1132,0-.1169c2.4427-.5878,4.911-.7375,7.4085-.4491c2.534.3286,5.0753,1.2634,7.087,2.9247.515.4236-.9419,2.2236-1.4202,1.9242Z" fill="#8e8171"></path><path d="M78.2726,52.2937c-4.575-1.8001-9.5554-2.7275-14.6526-2.1944-.0292,0-.0548-.1059-.0256-.1132c2.5012-.9384,5.0863-1.4642,7.7517-1.5774c2.7056-.0767,5.5098.4236,7.9416,1.7161.6207.3323-.4418,2.3916-1.0151,2.1689Z" fill="#8e8171"></path><path d="M102.481,29.4658c-.734-2.0557-2.345-3.812-4.2761-5.1593-1.9351-1.351-4.3085-2.3733-6.6563-3.4286-.0292-.0109,0-.1131.0329-.1095c2.5194.4783,5.1301.7887,7.6348,1.8987c2.4607,1.0771,4.8637,3.173,5.5717,6.1561.154.7777-2.147,1.1319-2.307.6426Z" fill="#8e8171"></path><path d="M60.4175,63.5762c-4.4729-1.0443-9.3583.157-14.4007.9274-.0293,0-.0548-.1022-.0293-.1132c2.3661-.953,4.6189-2.1579,7.131-2.9356s5.3273-1.1137,7.9927-.168c.6791.2556-.157,2.4245-.6937,2.2894Z" fill="#8e8171"></path><path d="M64.7085,85.7067c-.2009-.0146-1.0772.1716-1.6906.2702l-2.0082.398-4.0055.8397c-2.6691.5952-5.3345,1.278-7.978,2.0995-.0329,0-.0767-.0912-.0439-.1058c2.4208-1.446,4.9256-2.7276,7.5144-3.8522c1.3145-.555,2.6618-1.015,4.0383-1.3838.6901-.1862,1.3875-.3359,2.0849-.4601.7449-.0766,1.2451-.303,2.4646-.1606.6792.1424.6646.9019.3141,1.3619-.3506.4601-.6463.9676-.6901.9932Z" fill="#8e8171"></path><path d="M61.6625,101.962c-5.1629.391-10.3113,1.395-15.2332,3.465-.0292,0-.084-.084-.0548-.102c4.2465-3.125,9.5664-5.9406,15.2515-5.758.7047.0256.6828,2.344.0365,2.395Z" fill="#8e8171"></path><path d="M85.3088,83.5925c-4.0785-2.3697-9.2998-2.1287-14.4773-1.5956-.0329,0-.0512-.1059-.0219-.1132c2.4792-.8325,4.9621-1.7855,7.7005-2.1104c2.7385-.3214,5.7399.0693,8.1315,1.8366.6061.4564-.8544,2.2747-1.3328,1.9826Z" fill="#8e8171"></path><path d="M108.695,81.4345c-4.575-.1971-9.2119,1.5226-13.9549,3.184-.0292,0-.0767-.084-.0512-.1023c2.1105-1.3619,4.1516-2.8808,6.4991-4.0237c2.348-1.1428,5.035-1.8695,7.763-1.4386.701.1241.299,2.4098-.256,2.3806Z" fill="#8e8171"></path><path d="M86.8463,99.7531c-4.8051.6679-9.5445,2.0449-13.9005,4.5789-.0255.014-.0912-.07-.0693-.091c1.8439-1.844,3.9032-3.407,6.1743-4.6924c2.3186-1.2633,4.9402-2.1141,7.6166-2.1725.6828-.0292.7741,2.293.1789,2.377Z" fill="#8e8171"></path><path d="M118.167,99.3078c-5.893,3.7282-12.834,4.8302-19.3845,5.6012-.0438,0-.0621-.102-.0219-.11c6.3024-1.979,12.3774-4.502,18.2274-7.5724.694-.3651,1.924,1.6029,1.179,2.0812Z" fill="#8e8171"></path><path d="M91.7825,111.97c-2.2492,2.005-5.2432,2.823-8.0547,2.885-2.8079.058-5.5098-.559-8.0767-1.212-.0328,0-.0146-.117.0183-.117c2.6581.062,5.4039-.051,7.9379-.592c2.4171-.482,4.6444-1.424,6.6745-2.826.4382-.336,2.0703,1.322,1.5007,1.862Z" fill="#8e8171"></path><path d="M49.8435,49.0293c-4.5313-.3724-9.1027-.7521-13.2834,1.1721-.0256,0-.084-.0803-.0621-.0986c3.4833-3.0561,8.9749-4.4947,13.7142-3.4359.6062.1315.2009,2.4135-.3687,2.3624Z" fill="#8e8171"></path><path d="M78.4841,69.1736c-4.1698.3104-8.4163-.0365-12.5459-.6244-.0292,0-.0219-.1132,0-.1168c4.1953-.6244,8.3213-1.9242,12.44-1.6504.5258.0329.6426,2.3551.1059,2.3916Z" fill="#8e8171"></path><path d="M108.067,21.7615c-1.078-2.3222-2.29-3.947-4.309-5.3857-1.939-1.4495-4.283-2.7202-6.2656-4.4984-.0256-.0219.0365-.1095.0657-.0949c2.3295,1.2743,4.8489,1.8147,7.2699,2.9904c1.296.5733,2.417,1.3875,3.363,2.4427.945,1.0553,1.632,2.2565,2.063,3.6039.233.6316-1.903,1.5153-2.187.942Z" fill="#8e8171"></path><path d="M119.346,23.2075c-.738-3.0087-1.3-6.0283-2.151-9.1282c0-.0183.092-.0658.103-.0512c1.946,2.5121,4.22,5.4332,4.429,8.8398.014.4272-2.286.712-2.381.3396Z" fill="#8e8171"></path><path d="M90.7193,33.9497c-2.7239-1.4678-5.3382-3.078-8.2154-4.5166-.0183,0,0-.1132.0292-.1096c3.1693.2446,6.8571.5148,9.5226,2.6435.3359.2629-.9968,2.1653-1.3364,1.9827Z" fill="#8e8171"></path><path d="M44.4396,99.1251c-3.1985,1.9639-6.3642,3.9759-9.3327,6.4959-.0182.014-.1022-.055-.0913-.073c2.0009-3.286,4.524-6.9341,8.3469-8.5589.4747-.2045,1.4678,1.8877,1.0771,2.136Z" fill="#8e8171"></path><path d="M58.2234,114.683c-2.5851.628-5.141.417-7.507.296-1.1648-.073-2.3332-.084-3.4979-.029-1.1173.077-2.2054.285-2.9503.986-.0182.018-.1059-.048-.0913-.073.5404-.946,1.6942-1.57,2.8663-1.965c1.1976-.39,2.4208-.675,3.6695-.851c2.4902-.361,4.8818-.449,7.0762-.722.5331-.059,1.0991,2.19.4345,2.358Z" fill="#8e8171"></path><path d="M65.7377,122.475c-1.2013.508-2.3405.497-3.2314.573-.8983.07-1.7819.209-2.6582.417-1.8329.434-3.5271,1.183-5.0789,2.253-.0183.011-.095-.066-.0804-.084c1.2232-1.68,2.7495-3.016,4.5751-4.006.964-.504,1.9827-.843,3.0562-1.022c1.0588-.161,1.9497-.201,2.6033-.376.2556-.062,1.4605,1.942.8143,2.245Z" fill="#8e8171"></path><path d="M109.717,59.3407c-1.226-1.2195-3.289-1.9644-5.283-2.7238-2.063-.7376-4.155-1.3656-6.2802-1.8841-.0292,0-.0146-.1168.011-.1168c2.2232-.0585,4.5092-.1534,6.8172.1533c1.172.1388,2.315.409,3.425.807c1.252.4381,2.3,1.172,3.136,2.2053.42.6171-1.555,1.8403-1.826,1.5591Z" fill="#8e8171"></path><path d="M134.612,99.2565c-.223,1.6175-1.077,2.5855-1.673,3.5015-.664.949-1.391,1.848-2.179,2.695-1.6,1.705-3.681,3.202-6.029,3.713-.029,0-.062-.095-.04-.109c2.122-1.096,3.484-2.984,4.601-4.849l1.643-2.867c.58-.982,1.172-1.8435,1.311-2.446.051-.2191,2.41-.5367,2.366.3615Z" fill="#8e8171"></path><path d="M191.433,18.7967c-1.011.8288-2.136,1.4568-3.37,1.884-.748.241-1.405-.9018-.646-1.2889c1.095-.5586,2.194-1.0771,3.25-1.7161.153-.0913.317-.1168.493-.0767.175.0365.314.1315.412.2775.102.1497.139.3104.113.4857-.029.1789-.113.3213-.252.4308v.0037Z" fill="#d5b088"></path><path d="M185.42,19.6146c-.708.1826-1.354.5002-1.931.9566-.65.493-1.395-.4345-.92-1.0333.31-.4016.693-.7193,1.146-.953.453-.23.931-.3541,1.439-.3687.785-.0548,1.077,1.2012.27,1.3984h-.004Z" fill="#d5b088"></path><path d="M181.685,24.0876c-.716.6389-1.548,1.0077-2.501,1.099-.775.0876-1.059-1.2013-.271-1.3692.731-.1315,1.402-.4017,2.023-.807.716-.4856,1.348.5404.738,1.0772h.011Z" fill="#d5b088"></path><path d="M176.109,23.9888c-.537.2191-1.085.398-1.643.5368-.175.0584-.347.0474-.511-.0366-.165-.0803-.278-.2081-.34-.3833-.058-.1753-.047-.3469.033-.5112.08-.168.208-.2812.38-.3432.533-.2301,1.077-.4199,1.635-.5733.179-.0621.351-.0511.523.0329.167.0839.284.2154.346.3943s.052.3542-.032.5221c-.084.1716-.216.2848-.391.3469v.0146Z" fill="#d5b088"></path><path d="M172.812,28.4982c-.778.2629-1.577.4126-2.399.4527-.924.0329-.964-1.256-.088-1.4057.68-.1168,1.337-.2994,1.979-.5404.942-.3542,1.465,1.1684.508,1.4788v.0146Z" fill="#d5b088"></path><path d="M165.239,32.2297c-.592.0073-1.179.0511-1.764.1278-.763.0913-.964-1.0552-.27-1.2998.624-.2155,1.267-.325,1.932-.3287.964-.0182,1.055,1.4971.091,1.5007h.011Z" fill="#d5b088"></path><path d="M153.504,29.7579c-.537-.0438-1.077-.084-1.592-.168-.811-.1314-.719-1.4021.095-1.4167.54,0,1.077.0183,1.603.0475.106,0,.212.0182.31.0621.099.0401.183.1022.259.1789.073.0803.128.1716.165.2702.036.1022.051.2081.044.314-.008.1059-.037.2081-.088.303-.048.0986-.117.1789-.201.2447-.08.0693-.175.1168-.281.146-.102.0292-.208.0329-.314.0183Z" fill="#d5b088"></path><path d="M161.295,29.097c-.88.168-1.767.2337-2.662.1936-.883-.0402-1.011-1.3291-.087-1.4058.927-.073,1.778-.1168,2.661-.1899.888-.073.953,1.2451.088,1.4021Z" fill="#d5b088"></path><path d="M168.142,26.7238c-.704.2958-1.427.5185-2.176.6755-.61.1095-.949-.8836-.398-1.1721.683-.3359,1.395-.6061,2.129-.8069.179-.0621.354-.0511.526.0329.171.0839.288.2154.35.3943.062.1826.051.3578-.033.5294-.084.1717-.215.2848-.398.3469Z" fill="#d5b088"></path><path d="M177.723,29.2029c-.741.7631-1.639,1.2195-2.691,1.3728-.737.1059-.949-1.0552-.255-1.2743.759-.219,1.445-.5805,2.059-1.0771.573-.4783,1.413.4601.873.9786h.014Z" fill="#d5b088"></path><path d="M187.899,24.4452c-1.077,1.1355-2.381,1.8877-3.958,2.0009-.811.0621-1.099-1.2159-.27-1.4167c1.153-.2885,2.263-.7047,3.162-1.5116.664-.5952,1.73.2483,1.077.9274h-.011Z" fill="#d5b088"></path><path d="M191.266,15.3571c-.88.5112-1.793.9603-2.735,1.3473-.72.2702-1.3-.8252-.617-1.2304.894-.493,1.814-.9238,2.767-1.2963.672-.2665,1.238.8106.585,1.1685v.0109Z" fill="#d5b088"></path><path d="M34.3218,67.7095c.3432.3433.6681.7011.9785,1.0772.3067.3761.5952.7667.8654,1.1684.2702.4053.5184.8215.7485,1.2487.23.4309.4345.869.6207,1.3181.1862.4492.3505.9056.4893,1.3693.1424.4637.2592.9347.3541,1.413.095.4747.168.9567.2155,1.4386.0474.4857.0693.9676.0693,1.4533s-.0219.9712-.0693,1.4568c-.0475.482-.1205.9603-.2155,1.4386-.0949.4747-.2117.9457-.3541,1.4131-.1388.4637-.3031.9201-.4893,1.3692s-.3907.8873-.6207,1.3145c-.2301.4308-.4783.8471-.7485,1.2487-.2702.4053-.5587.796-.8654,1.1684-.3104.3761-.6353.7376-.9785,1.0808-.3433.3432-.7011.6682-1.0772.9786-.3761.3067-.7667.5951-1.1684.8653-.4053.2702-.8215.5185-1.2487.7485-.4272.2301-.8654.4382-1.3145.6208-.4491.1862-.9055.3505-1.3692.4929-.4637.1387-.9348.2592-1.4131.3542-.4746.0949-.953.1643-1.4386.2117-.482.0475-.9676.0731-1.4532.0731s-.9676-.0256-1.4532-.0731c-.482-.0474-.9603-.1168-1.4386-.2117-.4747-.095-.9457-.2155-1.4094-.3542-.4674-.1424-.9238-.3067-1.3729-.4929-.4455-.1826-.8836-.3907-1.3145-.6208-.4272-.23-.8434-.4783-1.2451-.7485-.4053-.2702-.796-.5586-1.1684-.8653-.3761-.3104-.7375-.6354-1.0808-.9786s-.6682-.7047-.9749-1.0808c-.3103-.3724-.5988-.7631-.869-1.1684-.2702-.4016-.5185-.8179-.7448-1.2487-.2301-.4272-.4382-.8654-.6244-1.3145s-.34687-.9055-.48928-1.3692c-.1424-.4674-.25924-.9384-.35417-1.4131-.09493-.4783-.16431-.9566-.21178-1.4386-.04746-.4856-.07302-.9712-.07302-1.4568s.02556-.9676.07302-1.4533c.04747-.4819.11685-.9639.21178-1.4386.09493-.4783.21177-.9493.35417-1.413s.30306-.9201.48928-1.3693c.1862-.4491.3943-.8872.6244-1.3181.2263-.4272.4746-.8434.7448-1.2487.2702-.4017.5587-.7923.869-1.1684.3067-.3761.6317-.7339.9749-1.0772s.7047-.6681,1.0808-.9785c.3724-.3067.7631-.5952,1.1684-.8654.4017-.2702.8179-.5221,1.2451-.7485.4309-.23.869-.4381,1.3145-.6243.4491-.1863.9055-.3469,1.3729-.4893.4637-.1424.9347-.2593,1.4094-.3542.4783-.0949.9566-.1643,1.4386-.2118.4856-.0474.9676-.073,1.4532-.073s.9712.0256,1.4532.073c.4856.0475.964.1169,1.4386.2118.4783.0949.9494.2118,1.4131.3542s.9201.303,1.3692.4893c.4491.1862.8873.3943,1.3145.6243.4272.2264.8434.4783,1.2487.7485.4017.2702.7923.5587,1.1684.8654.3761.3104.7339.6353,1.0772.9785Z" fill="#db6f3d"></path><path d="M16.6683,70.9883C11.0161,67.2019,7.562,61.8309,6.57615,55.0942c-.10588-.7375-1.21222-.5367-1.12825.1935.18257,1.6979.55865,3.3556,1.1246,4.9658s1.30717,3.1365,2.22729,4.5751c.91648,1.4422,1.98991,2.7567,3.21311,3.9507c1.2196,1.1903,2.5632,2.2273,4.0274,3.1109.5952.3541,1.2195-.4966.628-.8946v-.0073Z" fill="#84ab6a"></path><path d="M15.5107,70.2361c-.2702-.1534-.5367-.2958-.7923-.4455-.8289-.4893-1.6577-.9749-2.5048-1.4313-1.4313-.8069-2.91739-1.508-4.45458-2.0959-2.17982-.8361-4.42172-1.4313-6.72933-1.7854-.248292-.0183-.430856.0839-.547698.303-.113189.2191-.094933.4272.058421.6207C2.39892,67.5049,4.57874,69.3415,7.18942,70.4369c1.45321.6024,2.96118.9858,4.52398,1.1538.8799.0913,1.7635.1168,2.6435.1752.4491.0329.8946.0731,1.3437.1424.3688.0512.8361.2009,1.026-.2446.0767-.2483.0219-.4637-.168-.6426-.3103-.314-.6608-.5769-1.0479-.785Z" fill="#84ab6a"></path><path d="M42.0622,85.2138c-2.2309.7302-4.4327.5221-6.3678.4746-1.9389-.0438-3.8485.0219-5.4259,1.0516-.0182,0-.0912-.0657-.0766-.0876c1.1793-1.5409,3.3372-2.4573,5.4294-2.8845c2.0886-.4309,4.1114-.5404,5.8311-.8654.4126-.084,1.1904,2.1031.6098,2.3113Z" fill="#8e8171"></path><path d="M48.9381,75.2566c-4.4728-1.0443-9.3619.157-14.4007.9274-.0292,0-.0584-.1022-.0292-.1132c2.3624-.9493,4.6189-2.1579,7.131-2.9356s5.3236-1.1137,7.989-.168c.6791.2556-.1534,2.4245-.6901,2.2894Z" fill="#8e8171"></path><path d="M51.896,29.0459c.0219.9274.0804,1.8548.1826,2.7823.2885,2.5047,1.1794,5.0643,3.0853,6.711c4.692,4.042,9.4752-.869,10.063-5.696.7449-6.1305-1.2232-13.0753-2.0958-19.1254-.7193-4.99502-4.7613-10.50847-8.5696-4.83071C52.5277,11.9323,52.4656,16.3065,52.2977,19.83c-.1497,3.0598-.4674,6.1415-.4017,9.2159Z" fill="#eed1b0"></path><path d="M63.2329,16.9931c2.2309-.1461,4.5239-.4856,6.2839-1.8366c5.3308-4.0931-.0913-9.77819-4.2684-11.42857-4.7467-1.88772-10.6581-2.48288-15.3792-.16796-2.7969,1.37288-8.0621,6.87903-6.9594,10.35143c1.7745,5.5792,15.4523,3.3592,19.6805,3.1328l.6426-.0511Z" fill="#7a7061"></path><path d="M74.103,28.458c-3.7682-3.5709-9.1976-5.0607-14.6234-6.5833-.0329,0-.0147-.1168.0219-.1131c2.8188.1862,5.6704.2008,8.544.8069s5.7617,1.8841,7.8101,4.2428c.5002.6134-1.3035,2.0703-1.7526,1.6467Z" fill="#8e8171"></path><path d="M73.5811,39.7333c-1.4057-1.3109-3.3482-2.0995-5.4331-2.6691s-4.4217-.9494-6.649-1.76c-.0292,0,0-.1168.0256-.1132c2.3477.2155,4.6262-.1424,7.0214,0c2.3514.1205,5.0315.8289,6.7987,2.9393.4491.5623-1.4386,1.9097-1.7636,1.603Z" fill="#8e8171"></path></g></g></svg>